<?xml version="1.0" encoding="utf-8"?>
<!-- Generator: Adobe Illustrator 19.2.1, SVG Export Plug-In . SVG Version: 6.00 Build 0)  -->
<svg version="1.1" id="Layer_1" xmlns="http://www.w3.org/2000/svg" xmlns:xlink="http://www.w3.org/1999/xlink" x="0px" y="0px"
	 viewBox="0 0 24 18" style="enable-background:new 0 0 24 18;" xml:space="preserve">
<style type="text/css">
	.st0{fill:#434343;}
</style>
<path class="st0" d="M0,0v18h24V0H0z M21.6,15.6H2.4V2.4h19.2V15.6z M7.6,3.8c0.5,0,0.8,0.4,0.8,0.8c0,0.5-0.4,0.9-0.8,0.9
	c-0.5,0-0.9-0.4-0.9-0.9C6.8,4.2,7.1,3.8,7.6,3.8z M8.9,4.8c0,0.6-0.4,1-1,1s-1-0.4-1-1H3.6v8.4h7.2V8.4h2.4V4.8H8.9z M16.7,9.6
	c-0.1,0.4-0.5,0.7-0.9,0.7c-0.5,0-0.8-0.3-0.9-0.7H12v4.8h7.2V9.6H16.7z M15.5,8.3c0.5,0,0.8,0.4,0.8,0.8c0,0.5-0.4,0.9-0.8,0.9
	c-0.5,0-0.9-0.4-0.9-0.9C14.6,8.7,15,8.3,15.5,8.3z"/>
</svg>
